<?xml version="1.0" standalone="no"?>
<svg xmlns:xlink="http://www.w3.org/1999/xlink" id="wave" style="transform:rotate(0deg); transition: 0.3s" viewBox="0 0 1440 490" version="1.1" xmlns="http://www.w3.org/2000/svg"><defs><linearGradient id="sw-gradient-0" x1="0" x2="0" y1="1" y2="0"><stop stop-color="rgba(51, 152, 172, 1)" offset="0%"/><stop stop-color="rgba(11, 56, 65, 1)" offset="100%"/></linearGradient></defs><path style="transform:translate(0, 0px); opacity:1" fill="url(#sw-gradient-0)" d="M0,147L60,187.8C120,229,240,310,360,285.8C480,261,600,131,720,122.5C840,114,960,229,1080,236.8C1200,245,1320,147,1440,106.2C1560,65,1680,82,1800,147C1920,212,2040,327,2160,326.7C2280,327,2400,212,2520,155.2C2640,98,2760,98,2880,98C3000,98,3120,98,3240,89.8C3360,82,3480,65,3600,114.3C3720,163,3840,278,3960,285.8C4080,294,4200,196,4320,179.7C4440,163,4560,229,4680,285.8C4800,343,4920,392,5040,351.2C5160,310,5280,180,5400,163.3C5520,147,5640,245,5760,245C5880,245,6000,147,6120,89.8C6240,33,6360,16,6480,49C6600,82,6720,163,6840,236.8C6960,310,7080,376,7200,375.7C7320,376,7440,310,7560,245C7680,180,7800,114,7920,81.7C8040,49,8160,49,8280,40.8C8400,33,8520,16,8580,8.2L8640,0L8640,490L8580,490C8520,490,8400,490,8280,490C8160,490,8040,490,7920,490C7800,490,7680,490,7560,490C7440,490,7320,490,7200,490C7080,490,6960,490,6840,490C6720,490,6600,490,6480,490C6360,490,6240,490,6120,490C6000,490,5880,490,5760,490C5640,490,5520,490,5400,490C5280,490,5160,490,5040,490C4920,490,4800,490,4680,490C4560,490,4440,490,4320,490C4200,490,4080,490,3960,490C3840,490,3720,490,3600,490C3480,490,3360,490,3240,490C3120,490,3000,490,2880,490C2760,490,2640,490,2520,490C2400,490,2280,490,2160,490C2040,490,1920,490,1800,490C1680,490,1560,490,1440,490C1320,490,1200,490,1080,490C960,490,840,490,720,490C600,490,480,490,360,490C240,490,120,490,60,490L0,490Z"/><defs><linearGradient id="sw-gradient-1" x1="0" x2="0" y1="1" y2="0"><stop stop-color="rgba(51, 152, 172, 1)" offset="0%"/><stop stop-color="rgba(11, 56, 65, 1)" offset="100%"/></linearGradient></defs><path style="transform:translate(0, 50px); opacity:0.9" fill="url(#sw-gradient-1)" d="M0,294L60,253.2C120,212,240,131,360,138.8C480,147,600,245,720,285.8C840,327,960,310,1080,326.7C1200,343,1320,392,1440,392C1560,392,1680,343,1800,343C1920,343,2040,392,2160,359.3C2280,327,2400,212,2520,179.7C2640,147,2760,196,2880,220.5C3000,245,3120,245,3240,253.2C3360,261,3480,278,3600,277.7C3720,278,3840,261,3960,253.2C4080,245,4200,245,4320,212.3C4440,180,4560,114,4680,147C4800,180,4920,310,5040,359.3C5160,408,5280,376,5400,375.7C5520,376,5640,408,5760,424.7C5880,441,6000,441,6120,441C6240,441,6360,441,6480,416.5C6600,392,6720,343,6840,310.3C6960,278,7080,261,7200,253.2C7320,245,7440,245,7560,236.8C7680,229,7800,212,7920,196C8040,180,8160,163,8280,196C8400,229,8520,310,8580,351.2L8640,392L8640,490L8580,490C8520,490,8400,490,8280,490C8160,490,8040,490,7920,490C7800,490,7680,490,7560,490C7440,490,7320,490,7200,490C7080,490,6960,490,6840,490C6720,490,6600,490,6480,490C6360,490,6240,490,6120,490C6000,490,5880,490,5760,490C5640,490,5520,490,5400,490C5280,490,5160,490,5040,490C4920,490,4800,490,4680,490C4560,490,4440,490,4320,490C4200,490,4080,490,3960,490C3840,490,3720,490,3600,490C3480,490,3360,490,3240,490C3120,490,3000,490,2880,490C2760,490,2640,490,2520,490C2400,490,2280,490,2160,490C2040,490,1920,490,1800,490C1680,490,1560,490,1440,490C1320,490,1200,490,1080,490C960,490,840,490,720,490C600,490,480,490,360,490C240,490,120,490,60,490L0,490Z"/></svg>